<?xml version="1.0" encoding="utf-8"?>
<!-- Generator: Adobe Illustrator 28.0.0, SVG Export Plug-In . SVG Version: 6.00 Build 0)  -->
<svg version="1.1" xmlns="http://www.w3.org/2000/svg" xmlns:xlink="http://www.w3.org/1999/xlink" x="0px" y="0px"
	 viewBox="0 0 24 24" style="enable-background:new 0 0 24 24;" xml:space="preserve">
<style type="text/css">
	.st0{clip-path:url(#SVGID_00000150816633661783809900000007863611648726706094_);}
	.st1{fill:#F0F0F0;}
	.st2{fill:#2D2A4A;}
	.st3{fill:#A51931;}
	.st4{fill:#FFDA44;}
	.st5{fill:#D80027;}
	.st6{fill:#496E2D;}
	.st7{fill:#0052B4;}
</style>
<g id="BACKGROUND">
</g>
<g id="FLAGS">
	<g>
		<path class="st7" d="M24,12c0,6.63-5.37,12-12,12S0,18.63,0,12C0,12,12,0,12,0C18.63,0,24,5.37,24,12z"/>
		<path class="st1" d="M12,0C12,0,12,0,12,0L12,0z"/>
		<path class="st1" d="M11.97,12H12c0-0.01,0-0.02,0-0.03C11.99,11.98,11.98,11.99,11.97,12z"/>
		<path class="st1" d="M12,6.26c0-2.11,0-3.5,0-6.26h0C5.37,0,0,5.37,0,12h6.26V8.47L9.79,12h2.18c0.01-0.01,0.02-0.02,0.03-0.03
			c0-0.81,0-1.53,0-2.18L8.47,6.26H12z"/>
		<path class="st5" d="M6.07,1.57C4.19,2.63,2.63,4.19,1.57,6.07V12H4.7V4.7v0H12c0-0.99,0-1.93,0-3.13H6.07z"/>
		<path class="st5" d="M12,10.52L7.74,6.26H6.26l0,0L12,12l0,0C12,12,12,10.98,12,10.52z"/>
		<path class="st1" d="M7.24,14.09l0.66,1.38l1.49-0.34l-0.67,1.37l1.2,0.95l-1.49,0.34l0,1.53l-1.19-0.96L6.05,19.3l0-1.53
			l-1.49-0.34l1.2-0.95l-0.67-1.37l1.49,0.34L7.24,14.09z"/>
		<path class="st1" d="M17.97,16.7l0.33,0.69l0.74-0.17l-0.33,0.69l0.6,0.47l-0.74,0.17l0,0.76l-0.6-0.48l-0.6,0.48l0-0.76
			l-0.74-0.17l0.6-0.47l-0.33-0.69l0.74,0.17L17.97,16.7z"/>
		<path class="st1" d="M14.9,9.39l0.33,0.69l0.74-0.17l-0.33,0.69l0.6,0.47l-0.74,0.17l0,0.76l-0.6-0.48L14.31,12l0-0.76l-0.74-0.17
			l0.6-0.47l-0.33-0.69l0.74,0.17L14.9,9.39z"/>
		<path class="st1" d="M17.97,5.22l0.33,0.69l0.74-0.17l-0.33,0.69l0.6,0.47l-0.74,0.17l0,0.76l-0.6-0.48l-0.6,0.48l0-0.76
			l-0.74-0.17l0.6-0.47l-0.33-0.69l0.74,0.17L17.97,5.22z"/>
		<path class="st1" d="M20.64,8.35l0.33,0.69l0.74-0.17l-0.33,0.69l0.6,0.47l-0.74,0.17l0,0.76l-0.6-0.48l-0.6,0.48l0-0.76
			l-0.74-0.17l0.6-0.47l-0.33-0.69l0.74,0.17L20.64,8.35z"/>
		<path class="st1" d="M18.73,12l0.26,0.8h0.84l-0.68,0.49l0.26,0.8l-0.68-0.49l-0.68,0.49l0.26-0.8l-0.68-0.49h0.84L18.73,12z"/>
	</g>
</g>
</svg>
