<svg width="24" height="24" viewBox="0 0 24 24" fill="none" xmlns="http://www.w3.org/2000/svg">
<g clip-path="url(#clip0_294_4507)">
<path d="M12 24C18.6274 24 24 18.6274 24 12C24 5.37258 18.6274 0 12 0C5.37258 0 0 5.37258 0 12C0 18.6274 5.37258 24 12 24Z" fill="#D80027"/>
<path d="M13.2387 9.07813C12.966 10.2125 12.4815 9.99613 12.2437 10.9854C10.8429 10.6486 9.98021 9.23999 10.317 7.83913C10.6537 6.43836 12.0624 5.57567 13.4632 5.91247C12.9876 7.89092 13.4827 8.06361 13.2387 9.07813Z" fill="#F0F0F0"/>
<path d="M9.60395 9.91871C10.5985 10.5286 10.243 10.9226 11.1103 11.4545C10.3571 12.6827 8.75092 13.0678 7.5227 12.3146C6.29453 11.5615 5.90936 9.95522 6.66255 8.72705C8.3972 9.79074 8.71431 9.37322 9.60395 9.91871V9.91871Z" fill="#F0F0F0"/>
<path d="M9.27995 13.6355C10.1673 12.8781 10.4321 13.338 11.206 12.6775C12.1414 13.7733 12.0113 15.4199 10.9155 16.3553C9.81967 17.2907 8.17304 17.1604 7.23779 16.0647C8.78532 14.7436 8.48621 14.3129 9.27995 13.6355Z" fill="#F0F0F0"/>
<path d="M12.715 15.092C12.2688 14.0141 12.7879 13.9042 12.3989 12.9642C13.7301 12.4133 15.256 13.0458 15.807 14.377C16.3579 15.7082 15.7253 17.234 14.3941 17.785C13.6161 15.9049 13.1141 16.0563 12.715 15.092Z" fill="#F0F0F0"/>
<path d="M15.1618 12.2754C13.9987 12.3667 14.0545 11.8389 13.0403 11.9184C12.9277 10.4822 14.0009 9.22642 15.4372 9.11368C16.8734 9.00123 18.1292 10.0743 18.2418 11.5106C16.2132 11.6697 16.202 12.1939 15.1618 12.2754Z" fill="#F0F0F0"/>
</g>
<defs>
<clipPath id="clip0_294_4507">
<rect width="24" height="24" fill="white"/>
</clipPath>
</defs>
</svg>
