<svg width="24" height="24" viewBox="0 0 24 24" fill="none" xmlns="http://www.w3.org/2000/svg">
<g clip-path="url(#clip0_294_4488)">
<path d="M12 24C18.6274 24 24 18.6274 24 12C24 5.37258 18.6274 0 12 0C5.37258 0 0 5.37258 0 12C0 18.6274 5.37258 24 12 24Z" fill="#F0F0F0"/>
<path d="M12.0002 0C7.24267 0 3.13192 2.76867 1.19092 6.78262H22.8094C20.8685 2.76867 16.7577 0 12.0002 0V0Z" fill="#FF9811"/>
<path d="M12.0002 24C16.7577 24 20.8685 21.2314 22.8095 17.2174H1.19092C3.13192 21.2314 7.24267 24 12.0002 24Z" fill="#6DA544"/>
<path d="M12.0001 16.1738C14.3052 16.1738 16.174 14.3051 16.174 11.9999C16.174 9.69476 14.3052 7.82605 12.0001 7.82605C9.69489 7.82605 7.82617 9.69476 7.82617 11.9999C7.82617 14.3051 9.69489 16.1738 12.0001 16.1738Z" fill="#0052B4"/>
<path d="M11.9998 14.6087C13.4405 14.6087 14.6085 13.4408 14.6085 12C14.6085 10.5593 13.4405 9.39136 11.9998 9.39136C10.5591 9.39136 9.39111 10.5593 9.39111 12C9.39111 13.4408 10.5591 14.6087 11.9998 14.6087Z" fill="#F0F0F0"/>
<path d="M12.0002 8.78088L12.805 10.6061L14.788 10.3904L13.6097 12L14.788 13.6095L12.805 13.3939L12.0002 15.2191L11.1954 13.3939L9.2124 13.6095L10.3907 12L9.2124 10.3904L11.1954 10.6061L12.0002 8.78088Z" fill="#0052B4"/>
</g>
<defs>
<clipPath id="clip0_294_4488">
<rect width="24" height="24" fill="white"/>
</clipPath>
</defs>
</svg>
